<svg id="Layer_1" data-name="Layer 1" xmlns="http://www.w3.org/2000/svg" viewBox="0 0 302.13 283.65"><title>ai camp logo</title><path d="M301.91,435.8a41,41,0,0,1-6.36,7.59,43.13,43.13,0,0,1-34,11.52,41.51,41.51,0,0,1-27.91-13.75c-.92-1-1.54-2.5-2.65-3s-2.66,0-4-.11a42,42,0,0,1-18.75-6,18.74,18.74,0,0,1-6.55-7,1.13,1.13,0,0,0-1.5-.66,19.4,19.4,0,0,1-6.08.31c-4.52-.42-9,.12-13.54,0-17.11-.59-32.51-11-37.9-26.86-4.66-13.69-2-26.22,7-37.43a1.45,1.45,0,0,0,.18-2c-3.77-6.9-5.33-14.16-3.49-21.95,1.18-5,4-9.1,7.25-12.95a25.88,25.88,0,0,1,11.69-8.26c.4-.14.68-.28.74-.8.65-6.36,3.45-11.83,7.21-16.86a70.57,70.57,0,0,1,15.28-15.29,43.77,43.77,0,0,1,18.56-7.93,1.83,1.83,0,0,0,1.46-.63c7.12-9.74,16.84-15.63,28.3-18.79A61.61,61.61,0,0,1,262.73,253a36.74,36.74,0,0,1,8.74,2.44,1.21,1.21,0,0,0,1.63-.31c7.13-7.63,16-10.61,26.29-9.95a34.86,34.86,0,0,1,16.18,4.69,25.1,25.1,0,0,1,7.47,6.82,1.29,1.29,0,0,0,1.56.66c3.16-.7,6.38-.34,9.56-.51,4.6-.25,9.19-.45,13.74.47,14,2.82,24.46,10.35,30.62,23.44a1.87,1.87,0,0,0,1.36,1.12c17.7,4.82,29.78,15.64,35.36,33.31a26.58,26.58,0,0,1,1.21,9,2.42,2.42,0,0,0,1.39,2.43c9.7,6.05,16,14.56,18.28,25.84a36.77,36.77,0,0,1-1.36,19.61,1.71,1.71,0,0,0,.29,1.92c5.91,7.16,8,15.48,7.36,24.62-.49,7.2-2.63,13.77-7.25,19.42a25.85,25.85,0,0,1-3.31,3.47c-.6.5-.65.86-.18,1.55a36,36,0,0,1,5.67,12.46c1.77,8.18-1.16,15.15-8.28,19.52-4.75,2.92-10,4.26-15.47,5.1-1.86.29-3.73.49-5.6.68a1.24,1.24,0,0,0-1.28,1.24A53.33,53.33,0,0,0,406.9,477c2.16,16.65,7,32.61,12.71,48.31.49,1.34.49,1.37-1,1.44-9.5.47-19,.91-28.5,1.37-4,.2-8,.37-12,.64a1.93,1.93,0,0,1-2.2-1.21q-10-19.12-20.36-38c-1.61-2.91-2.61-6.08-4-9.09-.6-1.31-1.21-2.61-1.77-3.93a1.48,1.48,0,0,0-1.62-1A21,21,0,0,1,335.86,472c-4.75-3.25-7.08-8-8-13.52a2.08,2.08,0,0,0-1.58-1.89c-6.6-2.27-12.67-5.49-17.66-10.49A29.76,29.76,0,0,1,301.91,435.8Zm75.34,74.7a11.68,11.68,0,0,0,.18-1.24c.17-2.91.33-5.83.49-8.74q1.4-25.54,2.8-51.11a1.22,1.22,0,0,0-.8-1.35,8.29,8.29,0,0,1-4.84-7.56,1.26,1.26,0,0,0-.93-1.38c-4.5-1.76-9-3.57-13.45-5.36q-9.61-3.86-19.24-7.68c-.77-.3-1-.59-.59-1.35a14.13,14.13,0,0,0,1-2.56c.27-.95.62-1.1,1.58-.71,10.77,4.35,21.56,8.65,32.33,13a1.38,1.38,0,0,0,1.79-.25,8.47,8.47,0,0,1,11.71-.48,1.18,1.18,0,0,0,1.56.14c9.53-4.86,19.09-9.66,28.6-14.57a27,27,0,0,0,9.83-8.42c5.48-7.76,6.82-24-3.13-33.26-.84-.78-2-1.55-2.28-2.53s.77-2.09,1.24-3.13a28.21,28.21,0,0,0,2.37-16.48c-1.64-10-7.26-17.19-16-22.09a3.54,3.54,0,0,0-1.58-.47l-16.74-1.14L366.52,330q-13.17-.89-26.32-1.79a1.13,1.13,0,0,0-1.22.64,8.56,8.56,0,0,1-11.89,3,1.52,1.52,0,0,0-1.73,0c-2.86,1.58-5.76,3.11-8.65,4.65-7.74,4.15-15.49,8.27-23.22,12.45-.82.44-1.23.39-1.6-.48a12.64,12.64,0,0,0-1.18-2.21c-.61-.89-.48-1.3.51-1.83,10.37-5.49,20.71-11.05,31.07-16.57a1.27,1.27,0,0,0,.81-1.64,8.07,8.07,0,0,1,3.19-8.58,2.2,2.2,0,0,0,1-2.55q-4-22.17-7.86-44.36c-1.05-6-4-10.61-9.4-13.56a26.9,26.9,0,0,0-12.35-3,23,23,0,0,0-15.18,4.58,29.45,29.45,0,0,0-6.45,7.66c-.87,1.34-.91,1.38-2.27.48a32,32,0,0,0-15.22-5.29,53.9,53.9,0,0,0-17.72,1.59C229.52,266,220,271.57,214,281.94a1.64,1.64,0,0,1-1.55.86,32.83,32.83,0,0,0-15.64,4.8c-6.21,3.7-11.16,8.78-15.61,14.38-4.6,5.79-7.41,12.13-5.89,19.75.18.92-.44.84-1,.91-2.68.37-5.4.54-7.89,1.81-4.16,2.12-6.85,5.68-9.3,9.46a15.94,15.94,0,0,0-2.49,9.58c.25,5.43,2.46,10.1,5.63,14.4a2,2,0,0,0,1,.76q7.92,2.73,15.84,5.5a.93.93,0,0,0,1.21-.29,8.53,8.53,0,0,1,11.53-1.74.82.82,0,0,0,1.2-.15l2.77-2.47c3.2-2.84,6.41-5.67,9.58-8.54.63-.57,1-.57,1.5.1a15,15,0,0,0,1.84,2.06c.76.7.61,1.1-.12,1.75-4.19,3.65-8.32,7.36-12.49,11a1.59,1.59,0,0,0-.62,1.73,8.2,8.2,0,0,1-2.39,7.79,1.28,1.28,0,0,0-.33,1.74c3.89,8.53,7.84,17,11.59,25.64,1.85,4.23,4.44,8.16,5.35,12.79.14.7.35,1.39.55,2.08a11.86,11.86,0,0,0,6.6,7.8c6.21,2.88,12.6,4.65,19.49,2.73a1.19,1.19,0,0,1,1.59.72,31.93,31.93,0,0,0,5.72,7.65,34.76,34.76,0,0,0,41.37,4.91A32.29,32.29,0,0,0,297.29,425a1.52,1.52,0,0,1,1.67-1.11c2.56.05,5.12,0,7.68-.05,2,0,2,0,2.2,2,.54,4.87,2,9.35,5.39,13.06,3.85,4.21,8.71,6.79,13.94,8.83a2.21,2.21,0,0,0,2.39-.27c1.61-1.15,3.29-2.19,5.06-3.36.05.48.08.75.1,1,.32,3.9.48,7.82,1,11.7.61,4.57,2.83,8,7.64,9.23a16.82,16.82,0,0,0,5.83.4,5.83,5.83,0,0,1,5.69,2.59,21.12,21.12,0,0,1,2.36,4.16,202.24,202.24,0,0,0,10.82,22.14C371.85,500.22,374.41,505.23,377.25,510.5ZM335,266c-1.54,0-3.66,0-5.77,0a12.9,12.9,0,0,0-3.91.52c-1.55.5-1.55.52-1.27,2.09q2.35,13.28,4.7,26.54,1.73,9.78,3.47,19.57c.1.56.1,1.09.95,1.26a8.3,8.3,0,0,1,6.78,6.48,1,1,0,0,0,1,.87l4.54.3,30.38,2c10.08.68,20.17,1.35,30.25,2.08,1,.07,1.23-.33,1.27-1.16a26.38,26.38,0,0,0-.56-7.62C403.36,304,389.37,291.72,374,290a2.34,2.34,0,0,1-2.34-1.94c-3.14-10-9.93-16.65-19.64-20.35A35.85,35.85,0,0,0,335,266Zm72.51,252.3c-.23-.76-.42-1.41-.62-2-4.36-13.93-8.2-28-9.38-42.6-.52-6.49-.35-12.94,1.87-19.18.28-.78.6-1.25,1.48-1.19a6.87,6.87,0,0,0,3.35-.74,6.59,6.59,0,0,1,2.2-.55,77.36,77.36,0,0,0,8.3-1.14c3.69-.79,7.31-1.78,10.44-4a8,8,0,0,0,3.51-8.54c-1-5.29-3.83-9.58-7.11-13.67-.48-.59-.87-.28-1.33,0q-13.56,6.88-27.13,13.75a1.22,1.22,0,0,0-.76,1.39,8.52,8.52,0,0,1-5.75,8.75,1.2,1.2,0,0,0-.94,1.26c-.44,8.62-.94,17.24-1.41,25.86q-1.17,21.36-2.34,42.72c-.06,1,.12,1.26,1.13,1.2,5.38-.3,10.77-.53,16.16-.79ZM188.13,415.35c2,.1,4.37.24,6.72.33a10.74,10.74,0,0,0,6.25-1.23c.68-.42.78-.79.45-1.52q-7.76-17.06-15.46-34.12a1.26,1.26,0,0,0-1.23-.87,8.51,8.51,0,0,1-8.45-8,1,1,0,0,0-.78-1q-7.86-2.7-15.71-5.47a1,1,0,0,0-1.16.26c-7.19,7.29-10.51,15.94-8.89,26.17,2.18,13.67,13.89,23.57,27.52,25.42A58.18,58.18,0,0,0,188.13,415.35Z" transform="translate(-140.38 -245.13)"/><path d="M313.44,369.29c.42-.05.53-.39.73-.62a14.1,14.1,0,0,1,15.59-3.57,7.86,7.86,0,0,1,4.62,5c.46-.53.84-.94,1.18-1.37,4.05-5,11.23-5.39,15.57-3.82,3.79,1.37,5.34,4.44,5.72,8.26.35,3.63-.35,7.17-.83,10.73-.67,4.95-1.4,9.89-2,14.84-.11.84-.29,1.24-1.28,1.22-3-.08-5.92-.06-8.88,0-.78,0-.9-.21-.8-.95q1.41-9.8,2.73-19.59a7.91,7.91,0,0,0-.15-3.21,3.19,3.19,0,0,0-3.15-2.62,6.93,6.93,0,0,0-7.44,4.8c-.9,2.55-1,5.24-1.41,7.88-.63,4.23-1.19,8.47-1.76,12.7-.09.7-.31,1-1.1,1-3-.05-6,0-9,0-.76,0-.94-.18-.83-.95.92-6.36,1.79-12.73,2.67-19.1a2.2,2.2,0,0,0,0-.36c.13-2.11.27-4.27-1.88-5.55-1.67-1-4.89-.38-6.64,1.1a8,8,0,0,0-2.63,5c-.7,4.34-1.3,8.69-1.93,13-.29,1.93-.54,3.88-.8,5.82-.08.65-.23,1-1.07,1-3-.07-6-.05-9,0-.74,0-1-.15-.86-.93q1.88-13.11,3.7-26.23c.33-2.29.67-4.58.94-6.88.09-.77.32-1.06,1.16-1,2.79.06,5.6,0,8.39,0,.75,0,1.11.08.92,1C313.68,367,313.59,368.13,313.44,369.29Z" transform="translate(-140.38 -245.13)"/><path d="M206.93,339.92a1.85,1.85,0,0,1,.45-1.16q14-24.37,27.93-48.76a1.64,1.64,0,0,1,1.67-1q3.6.09,7.2,0c.83,0,1.15.23,1.39,1Q251.72,311,258,332c.69,2.34,1.37,4.68,2.08,7,.21.69.18,1-.68,1-3.64-.05-7.28,0-10.92,0-.69,0-1-.22-1.12-.89-.75-3-1.58-5.95-2.35-8.92-.18-.7-.43-1-1.25-1-6,0-11.92,0-17.88,0a1.21,1.21,0,0,0-1.29.77c-1.58,3-3.23,6.06-4.82,9.1a1.49,1.49,0,0,1-1.54,1C214.43,339.89,210.68,339.92,206.93,339.92Zm31.22-36.13-8.33,15.67h12.31C240.82,314.28,239.52,309.18,238.15,303.79Z" transform="translate(-140.38 -245.13)"/><path d="M376.64,369.37c2.85-2.79,5.88-4.62,9.52-5.07,9.14-1.13,16.78,4.13,16.94,14.15A23,23,0,0,1,396,396c-5.12,4.93-11.16,6-17.85,3.86a8,8,0,0,1-4.36-3.67c-.29,1.94-.55,3.6-.79,5.26q-1,6.94-2,13.88c-.1.71-.37.92-1.07.91q-4.5-.06-9,0c-.81,0-.94-.19-.83-1q3.47-24.19,6.85-48.4c.28-2,.27-2,2.25-2,2.4,0,4.8,0,7.2,0,.68,0,.91.12.75.87C376.93,366.83,376.83,367.94,376.64,369.37Zm5.43,21.87c5.88,0,10.05-4.35,10.05-10.48,0-4.39-2.68-7.13-7.05-7.2-5.8-.09-9.49,3.24-10.31,9.29C374.08,387.93,377,391.24,382.07,391.24Z" transform="translate(-140.38 -245.13)"/><path d="M212.48,378.74c0-16.36,11.4-29.07,27.8-30.95a25.11,25.11,0,0,1,13.38,1.71,15.11,15.11,0,0,1,6,4.61c.52.67.58,1.06-.2,1.6-2.75,1.93-5.45,3.93-8.15,5.91-.42.31-.69.55-1.16,0-3.16-3.69-7.33-4.29-11.7-3.3-7.6,1.71-11.73,7-13.61,14.25a17,17,0,0,0,.29,10c3,8.59,12,9.75,18,6.57a14.63,14.63,0,0,0,4.12-3.25c.43-.48.69-.59,1.23-.13q3.51,3,7.08,5.93c.57.46.59.72.08,1.27a25.57,25.57,0,0,1-18.57,8.12,26.69,26.69,0,0,1-13.46-2.79c-7.46-3.88-10.81-10.31-11.19-18.5C212.46,379.46,212.48,379.1,212.48,378.74Z" transform="translate(-140.38 -245.13)"/><path d="M282.17,395.83c-3.9,4.39-8.76,5.65-14.14,4.86-7.12-1.06-10.17-6.21-8-13.1,1.26-4.07,4.31-6.31,8-7.85,3.9-1.63,8.05-2,12.21-2.1,1.24,0,2.48-.09,3.72,0,.92.05,1.07-.37,1-1.13a4.81,4.81,0,0,0-3.48-4.41,10,10,0,0,0-7.35.57,13.65,13.65,0,0,0-4,2.63c-.54.51-.81.39-1.21-.12-1.25-1.56-2.49-3.13-3.82-4.62-.52-.6-.39-.88.16-1.3a26.79,26.79,0,0,1,20.54-4.68c5.84,1.22,8.76,4.8,8.89,10.77a65.79,65.79,0,0,1-1,10.49c-.61,4.39-1.24,8.78-1.8,13.18-.1.77-.39.95-1.12.94q-4.08-.06-8.16,0c-.69,0-.86-.15-.77-.87A12.26,12.26,0,0,0,282.17,395.83Zm-7.6-2.38c5.3-.05,8.45-2.79,9.2-7.95.11-.74,0-1-.79-1a59.69,59.69,0,0,0-6,.28,10.72,10.72,0,0,0-5.54,2.06,3.74,3.74,0,0,0-1.44,3.83,3.31,3.31,0,0,0,2.9,2.51C273.46,393.32,274,393.38,274.57,393.45Z" transform="translate(-140.38 -245.13)"/><path d="M270.79,339.92c-1.6,0-3.2,0-4.8,0-.71,0-.87-.18-.77-.88,1-6.88,1.94-13.76,2.91-20.64q1.88-13.35,3.74-26.69c.37-2.67.33-2.68,3-2.68s5,0,7.55,0c1,0,1.16.31,1,1.22Q282,300,280.65,309.8l-3.72,26.45c-.05.4-.11.79-.17,1.19-.4,2.48-.4,2.48-2.86,2.48Z" transform="translate(-140.38 -245.13)"/></svg>